# OBJ written from E:\Full Sail\Cap Stone\Mobius\Floral_Path.obj
# Units	meters

o Floral Terr
v 140 1 -40
v 140 -1 -40
v 140 1 40
v 140 -1 40
v -140 1 -40
v -140 -1 -40
v -140 1 40
v -140 -1 40
vn 0 1 0
vn 0 0 1
vn -1 0 0
vn 0 -1 0
vn 1 0 0
vn 0 0 -1
vt 0.2975 0.699375
vt 0.2975 0.563125
vt 0.43375 0.563125
vt 0.43375 0.699375
vt 0.43375 0.835625
vt 0.57 0.699375
vt 0.57 0.835625
vt 0.025 0.835625
vt 0.025 0.699375
vt 0.16125 0.699375
vt 0.16125 0.835625
vt 0.2975 0.971875
vt 0.2975 0.835625
vt 0.43375 0.971875
mtllib Floral_Path.mtl
usemtl feild
g Default
f 1/1/1 5/2/1 7/3/1 3/4/1
f 4/5/2 3/4/2 7/6/2 8/7/2
f 8/8/3 7/9/3 5/10/3 6/11/3
f 6/12/4 2/13/4 4/5/4 8/14/4
f 2/13/5 1/1/5 3/4/5 4/5/5
f 6/11/6 5/10/6 1/1/6 2/13/6

o Floral Terr (2)
mtllib Floral_Path.mtl

o Floral Terr (3)
mtllib Floral_Path.mtl
