# OBJ written from E:\Full Sail\Cap Stone\Mobius\FootPath.obj
# Units	meters

o Floral Terr
mtllib FootPath.mtl

o Floral Terr (2)
v -140 1.07 15
v 140 1.07 15
v 140 -0.07 15
v -140 -0.07 15
v -140 1.07 -15
v -140 -0.07 -15
v 140 1.07 -15
v 140 -0.07 -15
v 139.42 1.65 -14.42
v -139.42 1.65 -14.42
v -139.42 1.65 14.42
v 139.42 1.65 14.42
v -139.42 -0.65 -14.42
v 139.42 -0.65 -14.42
v 139.42 -0.65 14.42
v -139.42 -0.65 14.42
vn 0 0 -1
vn 1 0 0
vn 0 -1 0
vn -1 0 0
vn 0 0 1
vn 0 1 0
vt 0.682104 0.28925
vt 0.762896 0.28925
vt 0.762896 0.45225
vt 0.682104 0.45225
vt 0.762896 0.61525
vt 0.682104 0.61525
vt 0.478338 0.455401
vt 0.640662 0.455401
vt 0.640662 0.612099
vt 0.478338 0.612099
vt 0.682104 0.12625
vt 0.762896 0.12625
vt 0.762896 0.77825
vt 0.682104 0.77825
vt 0.804338 0.455401
vt 0.966662 0.455401
vt 0.966662 0.612099
vt 0.804338 0.612099
vt 0.804 0.45225
vt 0.967 0.45225
vt 0.967 0.61525
vt 0.804 0.61525
vt 0.641 0.77825
vt 0.641 0.61525
vt 0.641 0.28925
vt 0.641 0.12625
vt 0.478 0.45225
vt 0.641 0.45225
mtllib FootPath.mtl
usemtl foot
g Default
f 6/1/1 5/2/1 7/3/1 8/4/1
f 8/4/2 7/3/2 2/5/2 3/6/2
f 13/7/3 14/8/3 15/9/3 16/10/3
f 4/11/4 1/12/4 5/2/4 6/1/4
f 3/6/5 2/5/5 1/13/5 4/14/5
f 9/15/6 10/16/6 11/17/6 12/18/6
f 7/19/1 5/20/1 10/16/6 9/15/6
f 5/20/4 1/21/4 11/17/6 10/16/6
f 1/21/5 2/22/5 12/18/6 11/17/6
f 2/5/2 7/3/2 9/15/6 12/18/6
f 16/23/3 15/24/3 3/6/5 4/14/5
f 13/25/3 16/26/3 4/11/5 6/1/4
f 6/27/1 8/28/1 14/8/3 13/7/3
f 8/4/2 3/6/2 15/9/3 14/8/3

o Floral Terr (3)
mtllib FootPath.mtl
