# OBJ written from E:\Full Sail\Cap Stone\Mobius\Level 1 Scene.obj
# Units	meters

o Floral Terr
v 140 1 -40
v 140 -1 -40
v 140 1 40
v 140 -1 40
v -140 1 -40
v -140 -1 -40
v -140 1 40
v -140 -1 40
v -140 1.07 15
v 140 1.07 15
v 140 -0.07 15
v -140 -0.07 15
v -140 1.07 -15
v -140 -0.07 -15
v 140 1.07 -15
v 140 -0.07 -15
v 139.42 1.65 -14.42
v -139.42 1.65 -14.42
v -139.42 1.65 14.42
v 139.42 1.65 14.42
v -139.42 -0.65 -14.42
v 139.42 -0.65 -14.42
v 139.42 -0.65 14.42
v -139.42 -0.65 14.42
v 11.8614 1.00469 -37.7223
v 0 1.00469 -38.4613
v 0 0.045314 -38.4613
v 11.8614 0.045314 -37.7223
v 23.2669 1.00469 -35.5336
v 23.2669 0.045314 -35.5336
v 33.7783 1.00469 -31.9794
v 33.7783 0.045314 -31.9794
v 42.9917 1.00469 -27.1963
v 42.9917 0.045314 -27.1963
v 50.5528 1.00469 -21.368
v 50.5528 0.045314 -21.368
v 56.1713 1.00469 -14.7185
v 56.1713 0.045314 -14.7185
v 59.6311 1.00469 -7.50343
v 59.6311 0.045314 -7.50343
v 60.7994 1.00469 2e-06
v 60.7994 0.045314 2e-06
v 59.6311 1.00469 7.50343
v 59.6311 0.045314 7.50343
v 56.1713 1.00469 14.7185
v 56.1713 0.045314 14.7185
v 50.5528 1.00469 21.368
v 50.5528 0.045314 21.368
v 42.9917 1.00469 27.1963
v 42.9917 0.045314 27.1963
v 33.7783 1.00469 31.9794
v 33.7783 0.045314 31.9794
v 23.2669 1.00469 35.5336
v 23.2669 0.045314 35.5336
v 11.8614 1.00469 37.7223
v 11.8614 0.045314 37.7223
v -5e-06 1.00469 38.4613
v -5e-06 0.045314 38.4613
v -11.8614 1.00469 37.7223
v -11.8614 0.045314 37.7223
v -23.2669 1.00469 35.5336
v -23.2669 0.045314 35.5336
v -33.7783 1.00469 31.9794
v -33.7783 0.045314 31.9794
v -42.9916 1.00469 27.1963
v -42.9916 0.045314 27.1963
v -50.5528 1.00469 21.368
v -50.5528 0.045314 21.368
v -56.1713 1.00469 14.7185
v -56.1713 0.045314 14.7185
v -59.6311 1.00469 7.50343
v -59.6311 0.045314 7.50343
v -60.7994 1.00469 0
v -60.7994 0.045314 0
v -59.6311 1.00469 -7.50344
v -59.6311 0.045314 -7.50344
v -56.1713 1.00469 -14.7185
v -56.1713 0.045314 -14.7185
v -50.5528 1.00469 -21.368
v -50.5528 0.045314 -21.368
v -42.9917 1.00469 -27.1963
v -42.9917 0.045314 -27.1963
v -33.7783 1.00469 -31.9794
v -33.7783 0.045314 -31.9794
v -23.2669 1.00469 -35.5336
v -23.2669 0.045314 -35.5336
v -11.8614 1.00469 -37.7223
v -11.8614 0.045314 -37.7223
v 11.8286 1.26569 -37.4634
v -3.79002e-08 1.26569 -38.2003
v -11.8286 1.26569 -37.4634
v -23.2004 1.26569 -35.2813
v -33.6761 1.26569 -31.7393
v -42.8513 1.26569 -26.9762
v -50.3725 1.26569 -21.1793
v -55.9522 1.26569 -14.5767
v -59.3819 1.26569 -7.42611
v -60.5384 1.26569 -5.04258e-09
v -59.3819 1.26569 7.42611
v -55.9522 1.26569 14.5767
v -50.3725 1.26569 21.1793
v -42.8513 1.26569 26.9762
v -33.6761 1.26569 31.7393
v -23.2004 1.26569 35.2813
v -11.8286 1.26569 37.4634
v -4.99057e-06 1.26569 38.2003
v 11.8286 1.26569 37.4634
v 23.2004 1.26569 35.2813
v 33.6761 1.26569 31.7393
v 42.8513 1.26569 26.9762
v 50.3725 1.26569 21.1793
v 55.9522 1.26569 14.5767
v 59.3819 1.26569 7.4261
v 60.5384 1.26569 1.98564e-06
v 59.3819 1.26569 -7.4261
v 55.9522 1.26569 -14.5767
v 50.3725 1.26569 -21.1793
v 42.8513 1.26569 -26.9762
v 33.6761 1.26569 -31.7393
v 23.2004 1.26569 -35.2813
v -3.79002e-08 -0.215686 -38.2003
v 11.8286 -0.215686 -37.4634
v 23.2004 -0.215686 -35.2813
v 33.6761 -0.215686 -31.7393
v 42.8513 -0.215686 -26.9762
v 50.3725 -0.215686 -21.1793
v 55.9522 -0.215686 -14.5767
v 59.3819 -0.215686 -7.4261
v 60.5384 -0.215686 1.98564e-06
v 59.3819 -0.215686 7.4261
v 55.9522 -0.215686 14.5767
v 50.3725 -0.215686 21.1793
v 42.8513 -0.215686 26.9762
v 33.6761 -0.215686 31.7393
v 23.2004 -0.215686 35.2813
v 11.8286 -0.215686 37.4634
v -4.99057e-06 -0.215686 38.2003
v -11.8286 -0.215686 37.4634
v -23.2004 -0.215686 35.2813
v -33.6761 -0.215686 31.7393
v -42.8513 -0.215686 26.9762
v -50.3725 -0.215686 21.1793
v -55.9522 -0.215686 14.5767
v -59.3819 -0.215686 7.42611
v -60.5384 -0.215686 -5.04258e-09
v -59.3819 -0.215686 -7.42611
v -55.9522 -0.215686 -14.5767
v -50.3725 -0.215686 -21.1793
v -42.8513 -0.215686 -26.9762
v -33.6761 -0.215686 -31.7393
v -23.2004 -0.215686 -35.2813
v -11.8286 -0.215686 -37.4634
vn 0 1 0
vn 0 0 1
vn -1 0 0
vn 0 -1 0
vn 1 0 0
vn 0 0 -1
vn 0 -1 0
vn -0.0622 0 -0.9981
vn -0.1885 0 -0.9821
vn 0 1 0
vn -0.3203 0 -0.9473
vn -0.4608 0 -0.8875
vn -0.6105 0 -0.792
vn -0.7638 0 -0.6454
vn -0.9017 0 -0.4324
vn -0.9881 0 -0.1538
vn -0.9881 0 0.1538
vn -0.9017 0 0.4324
vn -0.7638 0 0.6454
vn -0.6105 0 0.792
vn -0.4608 0 0.8875
vn -0.3203 0 0.9473
vn -0.1885 0 0.9821
vn -0.0622 0 0.9981
vn 0.0622 0 0.9981
vn 0.1885 0 0.9821
vn 0.3203 0 0.9473
vn 0.4608 0 0.8875
vn 0.6105 0 0.792
vn 0.7638 0 0.6454
vn 0.9017 0 0.4324
vn 0.9881 0 0.1538
vn 0.9881 0 -0.1538
vn 0.9017 0 -0.4324
vn 0.7638 0 -0.6454
vn 0.6105 0 -0.792
vn 0.4608 0 -0.8875
vn 0.3203 0 -0.9473
vn 0.1885 0 -0.9821
vn 0.0622 0 -0.9981
vt 0.2975 0.699375
vt 0.2975 0.563125
vt 0.43375 0.563125
vt 0.43375 0.699375
vt 0.43375 0.835625
vt 0.57 0.699375
vt 0.57 0.835625
vt 0.025 0.835625
vt 0.025 0.699375
vt 0.16125 0.699375
vt 0.16125 0.835625
vt 0.2975 0.971875
vt 0.2975 0.835625
vt 0.43375 0.971875
vt 0.682104 0.28925
vt 0.762896 0.28925
vt 0.762896 0.45225
vt 0.682104 0.45225
vt 0.762896 0.61525
vt 0.682104 0.61525
vt 0.478338 0.455401
vt 0.640662 0.455401
vt 0.640662 0.612099
vt 0.478338 0.612099
vt 0.682104 0.12625
vt 0.762896 0.12625
vt 0.762896 0.77825
vt 0.682104 0.77825
vt 0.804338 0.455401
vt 0.966662 0.455401
vt 0.966662 0.612099
vt 0.804338 0.612099
vt 0.804 0.45225
vt 0.967 0.45225
vt 0.967 0.61525
vt 0.804 0.61525
vt 0.641 0.77825
vt 0.641 0.61525
vt 0.641 0.28925
vt 0.641 0.12625
vt 0.478 0.45225
vt 0.641 0.45225
vt 0.32625 0.268941
vt 0.346561 0.266941
vt 0.366088 0.261018
vt 0.384076 0.251404
vt 0.399831 0.238475
vt 0.412746 0.22274
vt 0.422327 0.204817
vt 0.428216 0.185408
vt 0.430202 0.16525
vt 0.428216 0.145092
vt 0.422327 0.125683
vt 0.412746 0.10776
vt 0.399831 0.0920252
vt 0.384076 0.0790963
vt 0.366088 0.0694821
vt 0.346561 0.063559
vt 0.32625 0.0615585
vt 0.305939 0.063559
vt 0.286412 0.0694821
vt 0.268424 0.0790963
vt 0.252669 0.0920252
vt 0.239754 0.10776
vt 0.230173 0.125683
vt 0.224284 0.145092
vt 0.222298 0.16525
vt 0.224284 0.185408
vt 0.230173 0.204817
vt 0.239754 0.22274
vt 0.252669 0.238475
vt 0.268424 0.251404
vt 0.286412 0.261018
vt 0.305939 0.266941
vt 0.0135938 0.312321
vt 0.0135938 0.453179
vt 0 0.453179
vt 0 0.312321
vt 0.0271875 0.312321
vt 0.0271875 0.453179
vt 0.10875 0.268941
vt 0.0884388 0.266941
vt 0.0689121 0.261018
vt 0.0509239 0.251404
vt 0.0351689 0.238475
vt 0.0222542 0.22274
vt 0.0126733 0.204817
vt 0.00678422 0.185408
vt 0.00479821 0.16525
vt 0.00678422 0.145092
vt 0.0126733 0.125683
vt 0.0222542 0.10776
vt 0.0351689 0.0920252
vt 0.0509239 0.0790963
vt 0.0689121 0.0694821
vt 0.0884388 0.063559
vt 0.10875 0.0615585
vt 0.129061 0.063559
vt 0.148588 0.0694821
vt 0.166576 0.0790963
vt 0.182331 0.0920252
vt 0.195246 0.10776
vt 0.204827 0.125683
vt 0.210716 0.145092
vt 0.212702 0.16525
vt 0.210716 0.185408
vt 0.204827 0.204817
vt 0.195246 0.22274
vt 0.182331 0.238475
vt 0.166576 0.251404
vt 0.148588 0.261018
vt 0.129061 0.266941
vt 0.0407812 0.312321
vt 0.0407812 0.453179
vt 0.054375 0.312321
vt 0.054375 0.453179
vt 0.0679687 0.312321
vt 0.0679687 0.453179
vt 0.0815625 0.312321
vt 0.0815625 0.453179
vt 0.0951563 0.312321
vt 0.0951563 0.453179
vt 0.10875 0.312321
vt 0.10875 0.453179
vt 0.122344 0.312321
vt 0.122344 0.453179
vt 0.135937 0.312321
vt 0.135937 0.453179
vt 0.149531 0.312321
vt 0.149531 0.453179
vt 0.163125 0.312321
vt 0.163125 0.453179
vt 0.176719 0.312321
vt 0.176719 0.453179
vt 0.190313 0.312321
vt 0.190313 0.453179
vt 0.203906 0.312321
vt 0.203906 0.453179
vt 0.2175 0.312321
vt 0.2175 0.453179
vt 0.231094 0.312321
vt 0.231094 0.453179
vt 0.244687 0.312321
vt 0.244687 0.453179
vt 0.258281 0.312321
vt 0.258281 0.453179
vt 0.271875 0.312321
vt 0.271875 0.453179
vt 0.285469 0.312321
vt 0.285469 0.453179
vt 0.299062 0.312321
vt 0.299062 0.453179
vt 0.312656 0.312321
vt 0.312656 0.453179
vt 0.32625 0.312321
vt 0.32625 0.453179
vt 0.339844 0.312321
vt 0.339844 0.453179
vt 0.353438 0.312321
vt 0.353438 0.453179
vt 0.367031 0.312321
vt 0.367031 0.453179
vt 0.380625 0.312321
vt 0.380625 0.453179
vt 0.394219 0.312321
vt 0.394219 0.453179
vt 0.407813 0.312321
vt 0.407813 0.453179
vt 0.421406 0.312321
vt 0.421406 0.453179
vt 0.435 0.312321
vt 0.435 0.453179
vt 0.435 0.4915
vt 0.421406 0.4915
vt 0.421406 0.274
vt 0.435 0.274
vt 0.407813 0.4915
vt 0.407813 0.274
vt 0.394219 0.4915
vt 0.394219 0.274
vt 0.380625 0.4915
vt 0.380625 0.274
vt 0.367031 0.4915
vt 0.367031 0.274
vt 0.353438 0.4915
vt 0.353438 0.274
vt 0.339844 0.4915
vt 0.339844 0.274
vt 0.32625 0.4915
vt 0.32625 0.274
vt 0.312656 0.4915
vt 0.312656 0.274
vt 0.299062 0.4915
vt 0.299062 0.274
vt 0.285469 0.4915
vt 0.285469 0.274
vt 0.271875 0.4915
vt 0.271875 0.274
vt 0.258281 0.4915
vt 0.258281 0.274
vt 0.244687 0.4915
vt 0.244687 0.274
vt 0.231094 0.4915
vt 0.231094 0.274
vt 0.2175 0.4915
vt 0.2175 0.274
vt 0.203906 0.4915
vt 0.203906 0.274
vt 0.190313 0.4915
vt 0.190313 0.274
vt 0.176719 0.4915
vt 0.176719 0.274
vt 0.163125 0.4915
vt 0.163125 0.274
vt 0.149531 0.4915
vt 0.149531 0.274
vt 0.135937 0.4915
vt 0.135937 0.274
vt 0.122344 0.4915
vt 0.122344 0.274
vt 0.10875 0.4915
vt 0.10875 0.274
vt 0.0951563 0.4915
vt 0.0951563 0.274
vt 0.0815625 0.4915
vt 0.0815625 0.274
vt 0.0679687 0.4915
vt 0.0679687 0.274
vt 0.054375 0.4915
vt 0.054375 0.274
vt 0.0407812 0.4915
vt 0.0407812 0.274
vt 0.0271875 0.4915
vt 0.0271875 0.274
vt 0.10875 0.26965
vt 0.0883824 0.267644
vt 0.0687979 0.261703
vt 0.0135938 0.274
vt 0 0.274
mtllib Level 1 Scene.mtl
usemtl feild
g Default
f 1/1/1 5/2/1 7/3/1 3/4/1
f 4/5/2 3/4/2 7/6/2 8/7/2
f 8/8/3 7/9/3 5/10/3 6/11/3
f 6/12/4 2/13/4 4/5/4 8/14/4
f 2/13/5 1/1/5 3/4/5 4/5/5
f 6/11/6 5/10/6 1/1/6 2/13/6
usemtl foot
f 14/15/6 13/16/6 15/17/6 16/18/6
f 16/18/5 15/17/5 10/19/5 11/20/5
f 21/21/4 22/22/4 23/23/4 24/24/4
f 12/25/3 9/26/3 13/16/3 14/15/3
f 11/20/2 10/19/2 9/27/2 12/28/2
f 17/29/1 18/30/1 19/31/1 20/32/1
f 15/33/6 13/34/6 18/30/1 17/29/1
f 13/34/3 9/35/3 19/31/1 18/30/1
f 9/35/2 10/36/2 20/32/1 19/31/1
f 10/19/5 15/17/5 17/29/1 20/32/1
f 24/37/4 23/38/4 11/20/2 12/28/2
f 21/39/4 24/40/4 12/25/2 14/15/3
f 14/41/6 16/42/6 22/22/4 21/21/4
f 16/18/5 11/20/5 23/23/4 22/22/4
usemtl battleground
f 121/43/4 122/44/4 123/45/4 124/46/4 125/47/4 126/48/4 127/49/4 128/50/4 129/51/4 130/52/4 131/53/4 132/54/4 133/55/4 134/56/4 135/57/4 136/58/4 137/59/4 138/60/4 139/61/4 140/62/4 141/63/4 142/64/4 143/65/4 144/66/4 145/67/4 146/68/4 147/69/7 148/70/4 149/71/4 150/72/4 151/73/4 152/74/4
f 88/75/8 87/76/8 26/77/8 27/78/8
f 86/79/9 85/80/9 87/76/9 88/75/9
f 90/81/1 91/82/1 92/83/1 93/84/1 94/85/1 95/86/1 96/87/1 97/88/1 98/89/1 99/90/1 100/91/1 101/92/1 102/93/1 103/94/1 104/95/1 105/96/1 106/97/1 107/98/1 108/99/1 109/100/1 110/101/1 111/102/1 112/103/1 113/104/1 114/105/1 115/106/1 116/107/1 117/108/1 118/109/1 119/110/10 120/111/1 89/112/1
f 84/113/11 83/114/11 85/80/11 86/79/11
f 82/115/12 81/116/12 83/114/12 84/113/12
f 80/117/13 79/118/13 81/116/13 82/115/13
f 78/119/14 77/120/14 79/118/14 80/117/14
f 76/121/15 75/122/15 77/120/15 78/119/15
f 74/123/16 73/124/16 75/122/16 76/121/16
f 72/125/17 71/126/17 73/124/17 74/123/17
f 70/127/18 69/128/18 71/126/18 72/125/18
f 68/129/19 67/130/19 69/128/19 70/127/19
f 66/131/20 65/132/20 67/130/20 68/129/20
f 64/133/21 63/134/21 65/132/21 66/131/21
f 62/135/22 61/136/22 63/134/22 64/133/22
f 60/137/23 59/138/23 61/136/23 62/135/23
f 58/139/24 57/140/24 59/138/24 60/137/24
f 56/141/25 55/142/25 57/140/25 58/139/25
f 54/143/26 53/144/26 55/142/26 56/141/26
f 52/145/27 51/146/27 53/144/27 54/143/27
f 50/147/28 49/148/28 51/146/28 52/145/28
f 48/149/29 47/150/29 49/148/29 50/147/29
f 46/151/30 45/152/30 47/150/30 48/149/30
f 44/153/31 43/154/31 45/152/31 46/151/31
f 42/155/32 41/156/32 43/154/32 44/153/32
f 40/157/33 39/158/33 41/156/33 42/155/33
f 38/159/34 37/160/34 39/158/34 40/157/34
f 36/161/35 35/162/35 37/160/35 38/159/35
f 34/163/36 33/164/36 35/162/36 36/161/36
f 32/165/37 31/166/37 33/164/37 34/163/37
f 30/167/38 29/168/38 31/166/38 32/165/38
f 28/169/39 25/170/39 29/168/39 30/167/39
f 27/171/40 26/172/40 25/170/40 28/169/40
f 90/173/1 89/174/1 25/170/40 26/172/40
f 122/175/4 121/176/4 27/171/40 28/169/40
f 89/174/1 120/177/1 29/168/39 25/170/40
f 123/178/4 122/175/4 28/169/40 30/167/39
f 120/177/1 119/179/10 31/166/38 29/168/39
f 124/180/4 123/178/4 30/167/39 32/165/38
f 119/179/10 118/181/1 33/164/37 31/166/38
f 125/182/4 124/180/4 32/165/38 34/163/37
f 118/181/1 117/183/1 35/162/36 33/164/37
f 126/184/4 125/182/4 34/163/37 36/161/36
f 117/183/1 116/185/1 37/160/35 35/162/36
f 127/186/4 126/184/4 36/161/36 38/159/35
f 116/185/1 115/187/1 39/158/34 37/160/35
f 128/188/4 127/186/4 38/159/35 40/157/34
f 115/187/1 114/189/1 41/156/33 39/158/34
f 129/190/4 128/188/4 40/157/34 42/155/33
f 114/189/1 113/191/1 43/154/32 41/156/33
f 130/192/4 129/190/4 42/155/33 44/153/32
f 113/191/1 112/193/1 45/152/31 43/154/32
f 131/194/4 130/192/4 44/153/32 46/151/31
f 112/193/1 111/195/1 47/150/30 45/152/31
f 132/196/4 131/194/4 46/151/31 48/149/30
f 111/195/1 110/197/1 49/148/29 47/150/30
f 133/198/4 132/196/4 48/149/30 50/147/29
f 110/197/1 109/199/1 51/146/28 49/148/29
f 134/200/4 133/198/4 50/147/29 52/145/28
f 109/199/1 108/201/1 53/144/27 51/146/28
f 135/202/4 134/200/4 52/145/28 54/143/27
f 108/201/1 107/203/1 55/142/26 53/144/27
f 136/204/4 135/202/4 54/143/27 56/141/26
f 107/203/1 106/205/1 57/140/25 55/142/26
f 137/206/4 136/204/4 56/141/26 58/139/25
f 106/205/1 105/207/1 59/138/24 57/140/25
f 138/208/4 137/206/4 58/139/25 60/137/24
f 105/207/1 104/209/1 61/136/23 59/138/24
f 139/210/4 138/208/4 60/137/24 62/135/23
f 104/209/1 103/211/1 63/134/22 61/136/23
f 140/212/4 139/210/4 62/135/23 64/133/22
f 103/211/1 102/213/1 65/132/21 63/134/22
f 141/214/4 140/212/4 64/133/22 66/131/21
f 102/213/1 101/215/1 67/130/20 65/132/21
f 142/216/4 141/214/4 66/131/21 68/129/20
f 101/215/1 100/217/1 69/128/19 67/130/20
f 143/218/4 142/216/4 68/129/20 70/127/19
f 100/217/1 99/219/1 71/126/18 69/128/19
f 144/220/4 143/218/4 70/127/19 72/125/18
f 99/219/1 98/221/1 73/124/17 71/126/18
f 145/222/4 144/220/4 72/125/18 74/123/17
f 98/221/1 97/223/1 75/122/16 73/124/17
f 146/224/4 145/222/4 74/123/17 76/121/16
f 97/223/1 96/225/1 77/120/15 75/122/16
f 147/226/7 146/224/4 76/121/16 78/119/15
f 96/225/1 95/227/1 79/118/14 77/120/15
f 148/228/4 147/226/7 78/119/15 80/117/14
f 95/227/1 94/229/1 81/116/13 79/118/14
f 149/230/4 148/228/4 80/117/14 82/115/13
f 94/229/1 93/231/1 83/114/12 81/116/13
f 150/232/4 149/230/4 82/115/13 84/113/12
f 93/231/1 92/233/1 85/80/11 83/114/12
f 151/234/4 150/232/4 84/113/12 86/79/11
f 26/235/8 87/236/8 91/82/1 90/81/1
f 87/236/9 85/237/9 92/83/1 91/82/1
f 152/238/4 151/234/4 86/79/11 88/75/9
f 121/239/4 152/238/4 88/75/9 27/78/40
